<?xml version="1.0" encoding="utf-8"?>
<svg viewBox="0 0 162 150" xmlns="http://www.w3.org/2000/svg">
  <path d="M 143.457 -0.231 L 156 4.2 C 154 8.3 145.34 17.368 146.352 25.693 C 147.36 33.993 154.33 38.794 154.299 49.769 C 154.276 57.96 145.907 66.336 146.3 75 C 146.677 83.313 153.3 91.7 153.7 100 C 154 108.3 147 116.7 147.2 125 C 147.3 133.3 156.102 141.667 159.702 145.767 C 159.702 145.767 162.575 149.106 161.184 150 L 0 150 L 0 145.8 C 0 141.7 0 133.3 0 125 C 0 116.7 0 108.3 0 100 C 0 91.7 0 83.3 0 75 C 0 66.7 0 58.3 0 50 C 0 41.7 0 33.3 0 25 C 0 16.7 0 8.3 0 4.2 L 0 0 L 143.457 -0.231 Z" fill="#879e82" stroke-linecap="round" stroke-linejoin="miter" transform="matrix(1, 0, 0, 1, 2.842170943040401e-14, 1.509903313490213e-14)"/>
  <path d="M 158.692 149.767 L 156.692 145.567 C 154.866 143.408 147.325 133.44 151.892 124.767 C 155.793 117.359 159.392 108.067 157.992 99.767 C 156.692 91.467 147.692 83.067 146.992 74.767 C 146.392 66.467 153.992 58.067 154.392 49.767 C 154.692 41.467 147.692 33.067 147.892 24.767 C 147.992 16.467 155.392 8.067 158.992 3.967 L 162.017 -0.203 L 0.692 -0.233 L 0.692 3.967 C 0.692 8.067 0.692 16.467 0.692 24.767 C 0.692 33.067 0.692 41.467 0.692 49.767 C 0.692 58.067 0.692 66.467 0.692 74.767 C 0.692 83.067 0.692 91.467 0.692 99.767 C 0.692 108.067 0.692 116.467 0.692 124.767 C 0.692 133.067 0.692 141.467 0.692 145.567 L 0.692 149.767 L 158.692 149.767 Z" stroke-linecap="round" stroke-linejoin="miter" style="fill: rgb(135, 158, 130);"/>
</svg>